<?xml version="1.0" encoding="UTF-8"?>
<svg xmlns="http://www.w3.org/2000/svg" viewBox="0 0 64 64">
  <defs>
    <linearGradient id="paper" x1="0" y1="0" x2="1" y2="1">
      <stop offset="0" stop-color="#ffffff"/>
      <stop offset="1" stop-color="#dfe7f5"/>
    </linearGradient>
  </defs>
  <rect x="8" y="3" width="48" height="58" rx="5" fill="url(#paper)" stroke="#64748b" stroke-width="2"/>
  <rect x="14" y="10" width="16" height="19" rx="2" fill="#7c3aed"/>
  <rect x="34" y="10" width="16" height="19" rx="2" fill="#2563eb"/>
  <rect x="14" y="34" width="16" height="19" rx="2" fill="#0d9488"/>
  <rect x="34" y="34" width="16" height="19" rx="2" fill="#f97316"/>
  <path d="M16 25l5-6 4 4 3-3v7H16z" fill="#ede9fe" opacity=".9"/>
  <path d="M36 25l5-7 3 4 3-2 2 7H36z" fill="#dbeafe" opacity=".9"/>
  <path d="M16 49l5-7 4 5 3-2v6H16z" fill="#ccfbf1" opacity=".9"/>
  <path d="M36 49l5-6 3 3 3-4 2 9H36z" fill="#ffedd5" opacity=".9"/>
</svg>
